# xmcd
#
# Track frame offsets:
# 150
# 13790
# 25885
# 37790
# 51985
# 63420
# 76570
# 89860
#
# Disc length: 1336 seconds
#
# Revision: 0
# Processed by: cddbd v1.5.1PL0 Copyright (c) Steve Scherf et al.
# Submitted via: Audion 3.0.2 (http://www.panic.com/audion/)
#
DISCID=5b053608
DTITLE=Tennessee Waltz - Patti Page
DYEAR=1900
DGENRE=
TTITLE0=Tennessee Waltz
TTITLE1=Detour
TTITLE2=I Cried
TTITLE3=What A Dream
TTITLE4=With My Eyes Wide Open I'm Dreaming
TTITLE5=I Went To Your Wedding
TTITLE6=Gentle on My Mind
TTITLE7=Let Me Go Lover
EXTD=
EXTT0=
EXTT1=
EXTT2=
EXTT3=
EXTT4=
EXTT5=
EXTT6=
EXTT7=
PLAYORDER=
